<?xml version="1.0" encoding="UTF-8"?>
<svg width="926" height="674" version="1.1" viewBox="0 0 926 674" xmlns="http://www.w3.org/2000/svg">
 <defs>
  <marker id="Arrow" markerHeight="4" markerWidth="4" orient="auto" refX="1" refY="5" viewBox="0 0 10 10">
   <path d="m0 0 10 5-10 5z" fill="#707070"/>
  </marker>
 </defs>
 <rect x="233.5" y="3.939" width="453" height="303" fill="#549639" fill-opacity=".1"/>
 <g fill="#4e62d1" stroke="#707070" stroke-linejoin="round" stroke-width="4">
  <rect x="6.129" y="8.172" width="22.47" height="22.47"/>
  <rect x="6.129" y="99.09" width="22.47" height="22.47"/>
  <rect x="6.129" y="190" width="22.47" height="22.47"/>
  <rect x="6.129" y="280.9" width="22.47" height="22.47"/>
  <rect x="6.129" y="371.8" width="22.47" height="22.47"/>
  <rect x="6.129" y="462.8" width="22.47" height="22.47"/>
  <rect x="6.129" y="553.7" width="22.47" height="22.47"/>
  <rect x="6.129" y="644.6" width="22.47" height="22.47"/>
 </g>
 <g fill="#4862d1" stroke="#707070" stroke-linejoin="round" stroke-width="4">
  <rect x="893" y="9.644" width="22.47" height="22.47"/>
  <rect x="893" y="100.6" width="22.47" height="22.47"/>
  <rect x="893" y="191.5" width="22.47" height="22.47"/>
  <rect x="893" y="282.4" width="22.47" height="22.47"/>
  <rect x="893" y="373.3" width="22.47" height="22.47"/>
  <rect x="893" y="464.2" width="22.47" height="22.47"/>
  <rect x="893" y="555.1" width="22.47" height="22.47"/>
  <rect x="893" y="646.1" width="22.47" height="22.47"/>
 </g>
 <g fill="#92372e" stroke="#707070" stroke-linejoin="round" stroke-width="4">
  <circle cx="107.3" cy="18.32" r="10.45"/>
  <circle cx="107.3" cy="109.7" r="10.45"/>
  <circle cx="107.3" cy="201" r="10.45"/>
  <circle cx="107.3" cy="292.3" r="10.45"/>
  <circle cx="107.3" cy="383.7" r="10.45"/>
  <circle cx="107.3" cy="475" r="10.45"/>
  <circle cx="107.3" cy="566.4" r="10.45"/>
  <circle cx="107.3" cy="657.7" r="10.45"/>
 </g>
 <g fill="#92372e" stroke="#707070" stroke-linejoin="round" stroke-width="4">
  <circle cx="248.8" cy="18.32" r="10.45"/>
  <circle cx="248.8" cy="109.7" r="10.45"/>
  <circle cx="248.8" cy="201" r="10.45"/>
  <circle cx="248.8" cy="292.3" r="10.45"/>
  <circle cx="248.8" cy="383.7" r="10.45"/>
  <circle cx="248.8" cy="475" r="10.45"/>
  <circle cx="248.8" cy="566.4" r="10.45"/>
  <circle cx="248.8" cy="657.7" r="10.45"/>
 </g>
 <g fill="#92372e" stroke="#707070" stroke-linejoin="round" stroke-width="4">
  <circle cx="390.2" cy="18.32" r="10.45"/>
  <circle cx="390.2" cy="109.7" r="10.45"/>
  <circle cx="390.2" cy="201" r="10.45"/>
  <circle cx="390.2" cy="292.3" r="10.45"/>
  <circle cx="390.2" cy="383.7" r="10.45"/>
  <circle cx="390.2" cy="475" r="10.45"/>
  <circle cx="390.2" cy="566.4" r="10.45"/>
  <circle cx="390.2" cy="657.7" r="10.45"/>
 </g>
 <g fill="#92372e" stroke="#707070" stroke-linejoin="round" stroke-width="4">
  <circle cx="531.6" cy="18.32" r="10.45"/>
  <circle cx="531.6" cy="109.7" r="10.45"/>
  <circle cx="531.6" cy="201" r="10.45"/>
  <circle cx="531.6" cy="292.3" r="10.45"/>
  <circle cx="531.6" cy="383.7" r="10.45"/>
  <circle cx="531.6" cy="475" r="10.45"/>
  <circle cx="531.6" cy="566.4" r="10.45"/>
  <circle cx="531.6" cy="657.7" r="10.45"/>
 </g>
 <g fill="#92372e" stroke="#707070" stroke-linejoin="round" stroke-width="4">
  <circle cx="673.1" cy="18.32" r="10.45"/>
  <circle cx="673.1" cy="109.7" r="10.45"/>
  <circle cx="673.1" cy="201" r="10.45"/>
  <circle cx="673.1" cy="292.3" r="10.45"/>
  <circle cx="673.1" cy="383.7" r="10.45"/>
  <circle cx="673.1" cy="475" r="10.45"/>
  <circle cx="673.1" cy="566.4" r="10.45"/>
  <circle cx="673.1" cy="657.7" r="10.45"/>
 </g>
 <g fill="#92372e" stroke="#707070" stroke-linejoin="round" stroke-width="4">
  <circle cx="814.5" cy="18.32" r="10.45"/>
  <circle cx="814.5" cy="109.7" r="10.45"/>
  <circle cx="814.5" cy="201" r="10.45"/>
  <circle cx="814.5" cy="292.3" r="10.45"/>
  <circle cx="814.5" cy="383.7" r="10.45"/>
  <circle cx="814.5" cy="475" r="10.45"/>
  <circle cx="814.5" cy="566.4" r="10.45"/>
  <circle cx="814.5" cy="657.7" r="10.45"/>
 </g>
 <g fill="#fff" stroke="#707070" stroke-linejoin="round" stroke-width="4">
  <path d="m409.7 32.29 91.18 57.94" marker-end="url(#Arrow)"/>
  <path d="m410.2 97.37 91.18-57.94" marker-end="url(#Arrow)"/>
 </g>
 <g transform="translate(.2058 181.2)" fill="#fff" stroke="#707070" stroke-linejoin="round" stroke-width="4">
  <path d="m409.7 32.29 91.18 57.94" marker-end="url(#Arrow)"/>
  <path d="m410.2 97.37 91.18-57.94" marker-end="url(#Arrow)"/>
 </g>
 <g transform="translate(1.156 364.5)" fill="#fff" stroke="#707070" stroke-linejoin="round" stroke-width="4">
  <path d="m409.7 32.29 91.18 57.94" marker-end="url(#Arrow)"/>
  <path d="m410.2 97.37 91.18-57.94" marker-end="url(#Arrow)"/>
 </g>
 <g transform="translate(-.744 546.9)" fill="#fff" stroke="#707070" stroke-linejoin="round" stroke-width="4">
  <path d="m409.7 32.29 91.18 57.94" marker-end="url(#Arrow)"/>
  <path d="m410.2 97.37 91.18-57.94" marker-end="url(#Arrow)"/>
 </g>
 <g fill="#fff" stroke="#707070" stroke-linejoin="round" stroke-width="4">
  <path d="m262.5 36.94 106.4 134.9" marker-end="url(#Arrow)"/>
  <path d="m262.3 127.7 106.4 134.9" marker-end="url(#Arrow)"/>
  <path d="m259.1 278.8 106.4-134.9" marker-end="url(#Arrow)"/>
  <path d="m258.9 188 106.4-134.9" marker-end="url(#Arrow)"/>
 </g>
 <g transform="translate(-1.247 363.6)" fill="#fff" stroke="#707070" stroke-linejoin="round" stroke-width="4">
  <path d="m262.5 36.94 106.4 134.9" marker-end="url(#Arrow)"/>
  <path d="m262.3 127.7 106.4 134.9" marker-end="url(#Arrow)"/>
  <path d="m259.1 278.8 106.4-134.9" marker-end="url(#Arrow)"/>
  <path d="m258.9 188 106.4-134.9" marker-end="url(#Arrow)"/>
 </g>
 <g transform="translate(281.8 365.5)" fill="#fff" stroke="#707070" stroke-linejoin="round" stroke-width="4">
  <path d="m262.5 36.94 106.4 134.9" marker-end="url(#Arrow)"/>
  <path d="m262.3 127.7 106.4 134.9" marker-end="url(#Arrow)"/>
  <path d="m259.1 278.8 106.4-134.9" marker-end="url(#Arrow)"/>
  <path d="m258.9 188 106.4-134.9" marker-end="url(#Arrow)"/>
 </g>
 <g fill="#fff" stroke="#707070" stroke-linejoin="round" stroke-width="4">
  <path d="m115.4 42.74 121.6 304.9" marker-end="url(#Arrow)"/>
  <path d="m115.4 133.2 121.6 304.9" marker-end="url(#Arrow)"/>
  <path d="m115.4 223.6 121.6 304.9" marker-end="url(#Arrow)"/>
  <path d="m115.4 314 121.6 304.9" marker-end="url(#Arrow)"/>
  <g transform="matrix(1 0 0 -1 1.005 673.7)">
   <path d="m115.4 42.74 121.6 304.9" marker-end="url(#Arrow)"/>
   <path d="m115.4 133.2 121.6 304.9" marker-end="url(#Arrow)"/>
   <path d="m115.4 223.6 121.6 304.9" marker-end="url(#Arrow)"/>
   <path d="m115.4 314 121.6 304.9" marker-end="url(#Arrow)"/>
  </g>
 </g>
 <g transform="translate(563.8 -.6143)" fill="#fff" stroke="#707070" stroke-linejoin="round" stroke-width="4">
  <path d="m115.4 42.74 121.6 304.9" marker-end="url(#Arrow)"/>
  <path d="m115.4 133.2 121.6 304.9" marker-end="url(#Arrow)"/>
  <path d="m115.4 223.6 121.6 304.9" marker-end="url(#Arrow)"/>
  <path d="m115.4 314 121.6 304.9" marker-end="url(#Arrow)"/>
 </g>
 <g transform="matrix(1 0 0 -1 564.8 673.1)" fill="#fff" stroke="#707070" stroke-linejoin="round" stroke-width="4">
  <path d="m115.4 42.74 121.6 304.9" marker-end="url(#Arrow)"/>
  <path d="m115.4 133.2 121.6 304.9" marker-end="url(#Arrow)"/>
  <path d="m115.4 223.6 121.6 304.9" marker-end="url(#Arrow)"/>
  <path d="m115.4 314 121.6 304.9" marker-end="url(#Arrow)"/>
 </g>
 <g fill="#fff" stroke="#707070" stroke-linejoin="round" stroke-width="4">
  <path d="m42.29 18.05h29.44" marker-end="url(#Arrow)"/>
  <path d="m42.29 109.2h29.44" marker-end="url(#Arrow)"/>
  <path d="m42.29 200.3h29.44" marker-end="url(#Arrow)"/>
  <path d="m42.29 291.4h29.44" marker-end="url(#Arrow)"/>
  <path d="m42.29 382.5h29.44" marker-end="url(#Arrow)"/>
  <path d="m42.29 473.6h29.44" marker-end="url(#Arrow)"/>
  <path d="m42.29 564.7h29.44" marker-end="url(#Arrow)"/>
  <path d="m42.29 655.9h29.44" marker-end="url(#Arrow)"/>
 </g>
 <g transform="translate(0 .4184)" fill="#fff" stroke="#707070" stroke-linejoin="round" stroke-width="4">
  <path d="m131.2 18.28h80.74" marker-end="url(#Arrow)"/>
  <path d="m131.2 109.6h80.74" marker-end="url(#Arrow)"/>
  <path d="m131.2 200.9h80.74" marker-end="url(#Arrow)"/>
  <path d="m131.2 292.3h80.74" marker-end="url(#Arrow)"/>
  <path d="m131.2 383.6h80.74" marker-end="url(#Arrow)"/>
  <path d="m131.2 474.9h80.74" marker-end="url(#Arrow)"/>
  <path d="m131.2 566.3h80.74" marker-end="url(#Arrow)"/>
  <path d="m131.2 657.6h80.74" marker-end="url(#Arrow)"/>
 </g>
 <g transform="translate(141.3 .4184)" fill="#fff" stroke="#707070" stroke-linejoin="round" stroke-width="4">
  <path d="m131.2 18.28h80.74" marker-end="url(#Arrow)"/>
  <path d="m131.2 109.6h80.74" marker-end="url(#Arrow)"/>
  <path d="m131.2 200.9h80.74" marker-end="url(#Arrow)"/>
  <path d="m131.2 292.3h80.74" marker-end="url(#Arrow)"/>
  <path d="m131.2 383.6h80.74" marker-end="url(#Arrow)"/>
  <path d="m131.2 474.9h80.74" marker-end="url(#Arrow)"/>
  <path d="m131.2 566.3h80.74" marker-end="url(#Arrow)"/>
  <path d="m131.2 657.6h80.74" marker-end="url(#Arrow)"/>
 </g>
 <g transform="translate(280.4 .4184)" fill="#fff" stroke="#707070" stroke-linejoin="round" stroke-width="4">
  <path d="m131.2 18.28h80.74" marker-end="url(#Arrow)"/>
  <path d="m131.2 109.6h80.74" marker-end="url(#Arrow)"/>
  <path d="m131.2 200.9h80.74" marker-end="url(#Arrow)"/>
  <path d="m131.2 292.3h80.74" marker-end="url(#Arrow)"/>
  <path d="m131.2 383.6h80.74" marker-end="url(#Arrow)"/>
  <path d="m131.2 474.9h80.74" marker-end="url(#Arrow)"/>
  <path d="m131.2 566.3h80.74" marker-end="url(#Arrow)"/>
  <path d="m131.2 657.6h80.74" marker-end="url(#Arrow)"/>
 </g>
 <g transform="translate(424 .4184)" fill="#fff" stroke="#707070" stroke-linejoin="round" stroke-width="4">
  <path d="m131.2 18.28h80.74" marker-end="url(#Arrow)"/>
  <path d="m131.2 109.6h80.74" marker-end="url(#Arrow)"/>
  <path d="m131.2 200.9h80.74" marker-end="url(#Arrow)"/>
  <path d="m131.2 292.3h80.74" marker-end="url(#Arrow)"/>
  <path d="m131.2 383.6h80.74" marker-end="url(#Arrow)"/>
  <path d="m131.2 474.9h80.74" marker-end="url(#Arrow)"/>
  <path d="m131.2 566.3h80.74" marker-end="url(#Arrow)"/>
  <path d="m131.2 657.6h80.74" marker-end="url(#Arrow)"/>
 </g>
 <g transform="translate(565.4 .4184)" fill="#fff" stroke="#707070" stroke-linejoin="round" stroke-width="4">
  <path d="m131.2 18.28h80.74" marker-end="url(#Arrow)"/>
  <path d="m131.2 109.6h80.74" marker-end="url(#Arrow)"/>
  <path d="m131.2 200.9h80.74" marker-end="url(#Arrow)"/>
  <path d="m131.2 292.3h80.74" marker-end="url(#Arrow)"/>
  <path d="m131.2 383.6h80.74" marker-end="url(#Arrow)"/>
  <path d="m131.2 474.9h80.74" marker-end="url(#Arrow)"/>
  <path d="m131.2 566.3h80.74" marker-end="url(#Arrow)"/>
  <path d="m131.2 657.6h80.74" marker-end="url(#Arrow)"/>
 </g>
 <g transform="translate(795.8 1.187)" fill="#fff" stroke="#707070" stroke-linejoin="round" stroke-width="4">
  <path d="m42.29 18.05h29.44" marker-end="url(#Arrow)"/>
  <path d="m42.29 109.2h29.44" marker-end="url(#Arrow)"/>
  <path d="m42.29 200.3h29.44" marker-end="url(#Arrow)"/>
  <path d="m42.29 291.4h29.44" marker-end="url(#Arrow)"/>
  <path d="m42.29 382.5h29.44" marker-end="url(#Arrow)"/>
  <path d="m42.29 473.6h29.44" marker-end="url(#Arrow)"/>
  <path d="m42.29 564.7h29.44" marker-end="url(#Arrow)"/>
  <path d="m42.29 655.9h29.44" marker-end="url(#Arrow)"/>
 </g>
 <g transform="translate(282.9 .2394)" fill="#fff" stroke="#707070" stroke-linejoin="round" stroke-width="4">
  <path d="m262.5 36.94 106.4 134.9" marker-end="url(#Arrow)"/>
  <path d="m262.3 127.7 106.4 134.9" marker-end="url(#Arrow)"/>
  <path d="m259.1 278.8 106.4-134.9" marker-end="url(#Arrow)"/>
  <path d="m258.9 188 106.4-134.9" marker-end="url(#Arrow)"/>
 </g>
 <rect x="234" y="369" width="453" height="303" fill="#549639" fill-opacity=".1"/>
 <g fill="#8d5bad" fill-opacity=".1">
  <rect x="374" y="369" width="172" height="122"/>
  <rect x="374" y="552" width="172" height="120"/>
  <rect x="373.5" y="3.933" width="172" height="122"/>
  <rect x="373.5" y="187" width="172" height="120"/>
 </g>
</svg>
